<svg width="737" height="348" viewBox="0 0 737 348" fill="none" xmlns="http://www.w3.org/2000/svg">
<path d="M319.507 174.449C311.803 174.449 305.792 170.325 301.48 162.246C306.168 161.118 310.488 160.555 314.623 160.555C321.949 160.555 326.073 164.124 326.073 168.634C326.073 172.579 323.828 174.449 319.507 174.449ZM329.187 156.26C325.851 155.374 321.806 154.928 317.065 154.928C312.743 154.928 306.919 155.858 299.412 157.737C296.97 151.357 295.843 143.279 295.843 133.706V47.1295C295.843 20.0925 302.043 8.81946 314.623 5.81346V3.94347H272.554V5.81346C285.142 8.81946 291.334 20.0925 291.334 47.1295V100.083C291.334 102.151 290.582 103.278 289.08 103.278C288.14 103.278 286.834 102.527 285.331 100.836L201.196 3.94347H175.465C173.855 3.94347 172.28 3.98846 170.751 4.08646V8.46947C171.125 8.45247 171.52 8.44347 171.904 8.44347C183.732 8.44347 189.557 17.0865 189.557 34.5505V101.587C189.557 128.633 183.356 139.896 170.777 142.903V144.782H212.835V142.903C200.256 139.896 194.057 128.633 194.057 101.587V23.2855L283.264 125.814C288.328 131.639 291.334 138.206 292.273 145.909C292.837 150.606 293.776 154.928 295.467 159.052C290.019 160.743 281.949 163.373 271.239 167.131C260.54 171.076 251.145 174.261 242.887 177.079C234.809 179.897 225.423 182.528 214.714 184.783C204.015 187.225 194.432 188.352 185.986 188.352C170.965 188.352 159.504 183.843 151.623 175.013C143.731 166.192 139.786 155.67 139.786 143.091C139.786 131.451 142.98 121.305 149.556 112.86C155.066 105.605 162.17 101.4 170.751 100.228C172.397 100.004 174.087 99.8975 175.841 99.8975V97.6415C174.105 97.6415 172.405 97.6965 170.751 97.7945C156.248 98.6615 144.626 103.323 136.036 111.921C126.455 121.493 121.758 132.766 121.758 145.721C121.758 158.864 126.831 170.325 136.967 179.897C147.301 189.479 161.571 194.355 180.162 194.355C204.015 194.355 232.929 185.722 263.921 174.261C279.506 168.446 290.582 164.876 297.158 163.185C302.983 175.952 312.931 183.092 324.204 183.092C332.211 183.092 337.963 180.04 340.138 174.906C340.774 173.42 341.105 171.765 341.105 169.949C341.105 162.943 337.114 158.363 329.187 156.26Z" fill="#CCAA35"/>
<path d="M342.774 49.6716V112.863C342.774 115.681 342.729 118.347 342.648 120.852C342.8 119.278 342.881 117.613 342.881 115.878V53.7246C342.881 52.3466 342.845 50.9956 342.774 49.6716Z" fill="#CCAA35"/>
<path d="M365.689 74.1764C361.744 72.1094 359.686 68.7284 359.686 63.8424V12.2024C359.686 11.3354 359.847 10.6194 360.169 10.0464C360.662 9.15139 361.538 8.61538 362.763 8.48938C362.978 8.45338 363.202 8.44537 363.435 8.44537H388.038C400.349 8.44537 409.143 11.0404 414.905 16.6314C418.626 20.2364 421.078 25.0944 422.385 31.3044C423.153 34.9724 423.529 39.1144 423.529 43.7494C423.529 66.8484 409.259 78.8734 388.038 78.8734C379.583 78.8734 372.078 77.3704 365.689 74.1764ZM484.912 168.975C483.759 162.83 478.101 160.247 477.913 159.773C477.913 159.773 481.601 163.798 481.823 171.862C481.823 179.368 474.23 185.723 464.657 185.723C453.017 185.723 444.939 178.021 440.617 162.624C440.752 162.588 439.821 158.445 439.678 158.49C438.363 151.923 437.236 144.407 436.672 135.962C435.357 121.495 430.857 110.983 422.59 103.655C418.645 100.086 414.708 97.2774 411.138 95.2104C407.568 93.1434 403.06 90.8884 397.244 88.4464L383.716 82.8104C387.287 83.1864 390.668 83.3744 394.238 83.3744C407.193 83.3744 418.457 79.9914 427.663 73.4254C436.86 66.8484 441.556 56.9004 441.556 43.7494C441.556 32.6454 438.416 23.8504 432.118 17.3824C427.421 12.5514 420.953 9.01737 412.722 6.79037C405.717 4.89337 397.423 3.94537 387.85 3.94537H329.258C328.73 3.94537 328.203 3.95337 327.684 3.96237V8.44537H327.755C335.288 8.44537 339.655 10.9504 341.587 17.4724C342.401 20.2194 342.776 23.6904 342.776 27.9764V49.6714C342.848 50.9964 342.883 52.3464 342.883 53.7244V115.876C342.883 117.612 342.804 119.276 342.652 120.851C341.453 133.198 335.548 140.569 324.82 142.977V144.783H377.212V142.977C366.029 140.471 360.088 132.58 359.247 119.276C359.543 116.655 359.686 113.899 359.686 110.983V83.5614C359.686 80.3674 360.991 78.8734 363.435 78.8734C365.125 78.8734 367.943 79.8034 371.702 81.6824C380.898 86.1924 387.85 89.9494 392.547 92.9554C397.432 95.7744 401.932 99.3344 406.253 103.467C414.708 111.734 418.081 120.931 419.584 135.399C420.899 147.789 422.778 157.175 424.844 163.374L426.347 167.508C432.924 182.905 444.751 190.609 462.027 190.609C477.048 190.609 485.503 183.281 485.503 173.511C485.503 171.927 485.307 170.416 484.912 168.975Z" fill="#CCAA35"/>
<path d="M147.816 75.0181C135.906 81.8661 126.982 104.751 134.751 106.897C148.679 108.582 140.922 84.2631 147.816 75.0181Z" fill="#CCAA35"/>
<path d="M126.995 84.0081C117.599 94.0301 115.734 118.522 123.793 118.311C137.605 115.862 123.096 94.8621 126.995 84.0081Z" fill="#CCAA35"/>
<path d="M173.34 122.214C165.051 130.19 144.568 132.018 144.657 125.271C146.556 113.68 164.296 125.597 173.34 122.214Z" fill="#CCAA35"/>
<path d="M174.747 111.548C167.878 118.158 150.903 119.674 150.977 114.081C152.551 104.475 167.252 114.351 174.747 111.548Z" fill="#CCAA35"/>
<path d="M180.756 105.601C175.34 109.329 163.616 108.456 164.294 104.657C166.443 98.2978 175.341 106.668 180.756 105.601Z" fill="#CCAA35"/>
<path d="M186.059 93.7673C184.114 98.1683 176.474 102.123 175.439 99.4963C174.337 94.7073 183.094 96.5103 186.059 93.7673Z" fill="#CCAA35"/>
<path d="M158.303 76.9819C149.599 81.9859 143.078 98.7109 148.756 100.279C158.934 101.511 153.265 83.7389 158.303 76.9819Z" fill="#CCAA35"/>
<path d="M170.226 81.3709C163.01 83.6099 155.463 94.8149 159.374 96.9029C166.644 99.4859 165.412 85.5009 170.226 81.3709Z" fill="#CCAA35"/>
<path d="M179.614 85.8065C173.83 86.2675 166.285 93.3915 168.864 95.6155C173.876 98.7765 175.311 88.0895 179.614 85.8065Z" fill="#CCAA35"/>
<path d="M496.7 9.73325C488.344 9.73325 482.218 10.6622 478.317 12.3322C474.605 14.0042 470.892 17.7172 466.993 23.1012L454.552 41.1122H452.695L456.409 5.27725H569.298L573.01 41.1122H571.154L558.714 23.1012C554.815 17.7172 551.101 14.0042 547.202 12.3322C543.49 10.6622 537.362 9.73325 529.006 9.73325H524.922C522.508 9.73325 521.208 11.0332 521.208 13.4462V114.823C521.208 130.605 527.336 139.889 539.775 142.674V144.531H485.931V142.674C498.37 139.889 504.498 130.605 504.498 114.823V13.4462C504.498 11.0332 503.198 9.73325 500.785 9.73325H496.7Z" fill="#CCAA35"/>
<path d="M52.403 221.746V282.402L11.471 243.863V279.514H0V218.858L40.932 257.397V221.746H52.403Z" fill="#CCAA35"/>
<path d="M72.4553 269.448H101.669V279.516H72.4553V269.448ZM72.4553 243.947H100.019V253.767H72.4553V243.947ZM72.4553 221.748H101.669V231.816H72.4553V221.748ZM76.4163 279.516H64.9453V221.748H76.4163V279.516Z" fill="#CCAA35"/>
<path d="M178.746 221.748H192.528L168.266 282.652L150.028 245.019L131.789 282.652L107.609 221.748H121.474L133.935 257.564L150.028 218.86L166.285 257.564L178.746 221.748Z" fill="#CCAA35"/>
<path d="M249.799 252.613L268.615 279.516H254.502L237.255 252.613H249.799ZM231.313 221.749H243.527C248.093 221.749 251.986 222.533 255.204 224.1C258.423 225.668 260.884 227.828 262.59 230.579C264.296 233.33 265.148 236.548 265.148 240.234C265.148 243.865 264.296 247.057 262.59 249.807C260.884 252.559 258.423 254.704 255.204 256.244C251.986 257.785 248.093 258.554 243.527 258.554H231.313V249.147H242.784C244.818 249.147 246.593 248.804 248.107 248.116C249.62 247.427 250.789 246.452 251.614 245.186C252.44 243.92 252.852 242.352 252.852 240.481C252.852 238.721 252.44 237.195 251.614 235.902C250.789 234.609 249.62 233.632 248.107 232.971C246.593 232.311 244.818 231.981 242.784 231.981H231.313V221.749ZM235.934 279.516H224.133V221.748H235.934V279.516Z" fill="#CCAA35"/>
<path d="M284.631 256.986H312.36L313.763 266.477H283.228L284.631 256.986ZM289.748 260.452L289.996 263.093L282.486 279.516H269.117L298.331 218.282L327.71 279.516H314.258L306.913 263.671L306.996 260.535L298.331 240.564L289.748 260.452Z" fill="#CCAA35"/>
<path d="M324.818 287.769C325.974 288.265 327.211 288.513 328.532 288.513C329.796 288.513 331.034 288.003 332.245 286.986C333.455 285.966 334.061 284.192 334.061 281.663V221.749H346.522V284.138C346.522 286.724 346.082 288.952 345.202 290.823C344.321 292.693 343.098 294.22 341.529 295.404C339.961 296.585 338.146 297.452 336.082 298.003C334.02 298.552 331.778 298.828 329.357 298.828C327.432 298.828 325.575 298.581 323.786 298.085C321.999 297.59 320.391 296.984 318.959 296.27C317.529 295.554 316.373 294.866 315.492 294.206L321.929 285.789C322.701 286.614 323.663 287.274 324.818 287.769Z" fill="#CCAA35"/>
<path d="M378.047 221.748H420.96V232.476H405.363V279.516H393.479V232.476H378.047V221.748Z" fill="#CCAA35"/>
<path d="M453.393 252.613L472.209 279.516H458.096L440.849 252.613H453.393ZM434.907 221.749H447.121C451.687 221.749 455.58 222.533 458.798 224.1C462.017 225.668 464.478 227.828 466.184 230.579C467.89 233.33 468.742 236.548 468.742 240.234C468.742 243.865 467.89 247.057 466.184 249.807C464.478 252.559 462.017 254.704 458.798 256.244C455.58 257.785 451.687 258.554 447.121 258.554H434.907V249.147H446.378C448.413 249.147 450.187 248.804 451.701 248.116C453.214 247.427 454.383 246.452 455.208 245.186C456.034 243.92 456.446 242.352 456.446 240.481C456.446 238.721 456.034 237.195 455.208 235.902C454.383 234.609 453.214 233.632 451.701 232.971C450.187 232.311 448.413 231.981 446.378 231.981H434.907V221.749ZM439.528 279.516H427.727V221.748H439.528V279.516Z" fill="#CCAA35"/>
<path d="M488.217 256.986H515.946L517.349 266.477H486.814L488.217 256.986ZM493.334 260.452L493.582 263.093L486.072 279.516H472.703L501.917 218.282L531.296 279.516H517.844L510.499 263.671L510.582 260.535L501.917 240.564L493.334 260.452Z" fill="#CCAA35"/>
<path d="M545.158 279.516V268.706H556.876C559.407 268.706 561.787 268.362 564.015 267.674C566.243 266.986 568.224 265.914 569.957 264.455C571.69 262.998 573.023 261.127 573.96 258.844C574.895 256.561 575.362 253.824 575.362 250.632C575.362 247.442 574.895 244.69 573.96 242.379C573.023 240.068 571.69 238.199 569.957 236.768C568.224 235.338 566.243 234.279 564.015 233.591C561.787 232.903 559.407 232.559 556.876 232.559H545.158V221.748H557.207C561.773 221.748 565.926 222.422 569.667 223.769C573.409 225.119 576.613 227.058 579.283 229.588C581.95 232.119 584 235.159 585.43 238.706C586.861 242.255 587.576 246.231 587.576 250.632C587.576 255.035 586.861 259.008 585.43 262.557C584 266.105 581.95 269.146 579.283 271.676C576.613 274.208 573.409 276.146 569.667 277.494C565.926 278.843 561.773 279.516 557.207 279.516H545.158ZM549.779 279.516H537.648V221.748H549.779V279.516Z" fill="#CCAA35"/>
<path d="M604.33 269.448H633.544V279.516H604.33V269.448ZM604.33 243.947H631.894V253.767H604.33V243.947ZM604.33 221.748H633.544V231.816H604.33V221.748ZM608.291 279.516H596.82V221.748H608.291V279.516Z" fill="#CCAA35"/>
<path d="M670.924 252.613L689.74 279.516H675.627L658.38 252.613H670.924ZM652.438 221.749H664.652C669.218 221.749 673.111 222.533 676.329 224.1C679.548 225.668 682.009 227.828 683.715 230.579C685.421 233.33 686.273 236.548 686.273 240.234C686.273 243.865 685.421 247.057 683.715 249.807C682.009 252.559 679.548 254.704 676.329 256.244C673.111 257.785 669.218 258.554 664.652 258.554H652.438V249.147H663.909C665.943 249.147 667.718 248.804 669.232 248.116C670.745 247.427 671.914 246.452 672.739 245.186C673.565 243.92 673.977 242.352 673.977 240.481C673.977 238.721 673.565 237.195 672.739 235.902C671.914 234.609 670.745 233.632 669.232 232.971C667.718 232.311 665.943 231.981 663.909 231.981H652.438V221.749ZM657.059 279.516H645.258V221.748H657.059V279.516Z" fill="#CCAA35"/>
<path d="M705.464 265.65C706.921 267.246 708.531 268.497 710.291 269.405C712.052 270.313 713.95 270.767 715.986 270.767C717.581 270.767 718.97 270.492 720.153 269.941C721.336 269.392 722.258 268.608 722.918 267.59C723.578 266.573 723.908 265.375 723.908 264C723.908 262.24 723.455 260.796 722.547 259.667C721.639 258.54 720.304 257.55 718.545 256.696C716.783 255.843 714.611 254.922 712.025 253.932C710.593 253.382 708.998 252.693 707.238 251.869C705.476 251.043 703.785 249.943 702.163 248.567C700.54 247.192 699.205 245.542 698.161 243.616C697.115 241.69 696.592 239.353 696.592 236.601C696.592 233.356 697.43 230.535 699.109 228.142C700.788 225.748 703.071 223.892 705.96 222.571C708.847 221.251 712.107 220.591 715.738 220.591C719.369 220.591 722.533 221.209 725.23 222.448C727.924 223.686 730.166 225.254 731.955 227.152C733.742 229.05 735.132 230.989 736.122 232.97L726.88 238.252C726.054 236.877 725.106 235.61 724.032 234.456C722.959 233.3 721.735 232.393 720.36 231.732C718.984 231.071 717.443 230.741 715.738 230.741C714.197 230.741 712.918 230.989 711.901 231.485C710.883 231.979 710.112 232.627 709.591 233.424C709.067 234.222 708.807 235.116 708.807 236.106C708.807 237.151 709.081 238.115 709.631 238.994C710.181 239.875 710.993 240.687 712.066 241.429C713.139 242.171 714.487 242.887 716.11 243.575C717.732 244.263 719.617 244.991 721.763 245.762C723.633 246.422 725.448 247.246 727.21 248.237C728.97 249.227 730.538 250.438 731.913 251.869C733.288 253.3 734.39 254.963 735.214 256.862C736.04 258.759 736.452 260.92 736.452 263.339C736.452 266.146 735.888 268.635 734.76 270.809C733.633 272.982 732.106 274.825 730.181 276.338C728.254 277.851 726.081 279.007 723.661 279.803C721.239 280.601 718.736 281 716.152 281C712.574 281 709.261 280.34 706.206 279.019C703.153 277.699 700.498 275.912 698.243 273.655C695.986 271.4 694.227 268.869 692.961 266.062L701.461 260.039C702.671 262.184 704.005 264.055 705.464 265.65Z" fill="#CCAA35"/>
<path d="M246.873 338.561C247.738 339.606 248.71 340.422 249.787 341.009C250.864 341.597 252.089 341.891 253.46 341.891C254.7 341.891 255.769 341.664 256.668 341.205C257.565 340.749 258.267 340.112 258.774 339.295C259.28 338.48 259.533 337.549 259.533 336.504C259.533 334.97 259.173 333.745 258.455 332.831C257.738 331.918 256.798 331.174 255.64 330.603C254.481 330.032 253.247 329.518 251.943 329.06C251.093 328.767 250.146 328.383 249.101 327.909C248.056 327.436 247.061 326.831 246.115 326.097C245.167 325.362 244.392 324.456 243.788 323.379C243.184 322.301 242.882 320.98 242.882 319.412C242.882 317.715 243.306 316.197 244.156 314.858C245.004 313.52 246.179 312.466 247.682 311.699C249.182 310.932 250.897 310.548 252.824 310.548C254.685 310.548 256.308 310.899 257.697 311.601C259.084 312.303 260.268 313.201 261.247 314.295C262.227 315.389 262.993 316.54 263.548 317.747L259.974 319.804C259.549 318.955 259.011 318.123 258.357 317.306C257.704 316.491 256.913 315.821 255.982 315.299C255.052 314.777 253.917 314.515 252.579 314.515C251.338 314.515 250.326 314.727 249.543 315.151C248.759 315.576 248.179 316.115 247.804 316.768C247.428 317.421 247.24 318.123 247.24 318.873C247.24 319.592 247.371 320.261 247.632 320.882C247.894 321.503 248.326 322.09 248.93 322.645C249.534 323.2 250.351 323.739 251.379 324.26C252.408 324.783 253.672 325.306 255.175 325.827C256.088 326.154 257.051 326.579 258.064 327.102C259.076 327.623 260.014 328.285 260.88 329.084C261.745 329.885 262.454 330.847 263.01 331.974C263.565 333.101 263.842 334.447 263.842 336.014C263.842 337.517 263.556 338.872 262.985 340.08C262.414 341.287 261.631 342.316 260.635 343.164C259.638 344.014 258.513 344.667 257.255 345.123C255.998 345.581 254.685 345.809 253.314 345.809C251.452 345.809 249.73 345.408 248.147 344.609C246.563 343.81 245.175 342.748 243.983 341.426C242.791 340.103 241.82 338.692 241.07 337.19L244.4 334.937C245.184 336.308 246.008 337.517 246.873 338.561Z" fill="#CCAA35"/>
<path d="M274.124 345.32H269.961V311.039H274.124V345.32Z" fill="#CCAA35"/>
<path d="M312.08 311.039V347.035L286.124 319.805V345.32H281.961V309.324L307.917 336.554V311.039H312.08Z" fill="#CCAA35"/>
<path d="M323.389 333.639C324.075 335.288 325.014 336.708 326.205 337.9C327.396 339.092 328.751 340.014 330.27 340.666C331.789 341.32 333.396 341.647 335.094 341.647C336.726 341.647 338.22 341.434 339.575 341.009C340.93 340.585 342.162 339.989 343.273 339.222C344.382 338.455 345.33 337.565 346.113 336.553V342.037C344.675 343.312 343.108 344.259 341.412 344.879C339.714 345.498 337.607 345.809 335.094 345.809C332.71 345.809 330.482 345.375 328.409 344.511C326.335 343.646 324.516 342.422 322.949 340.838C321.381 339.255 320.157 337.386 319.276 335.231C318.394 333.076 317.953 330.725 317.953 328.179C317.953 325.631 318.394 323.281 319.276 321.126C320.157 318.971 321.381 317.103 322.949 315.518C324.516 313.935 326.335 312.711 328.409 311.846C330.482 310.982 332.71 310.548 335.094 310.548C337.607 310.548 339.714 310.859 341.412 311.478C343.108 312.099 344.675 313.045 346.113 314.318V319.804C345.33 318.792 344.382 317.902 343.273 317.135C342.162 316.368 340.93 315.772 339.575 315.347C338.22 314.923 336.726 314.711 335.094 314.711C333.396 314.711 331.789 315.037 330.27 315.691C328.751 316.344 327.396 317.266 326.205 318.457C325.014 319.649 324.075 321.07 323.389 322.718C322.704 324.367 322.36 326.188 322.36 328.179C322.36 330.17 322.704 331.991 323.389 333.639Z" fill="#CCAA35"/>
<path d="M355.763 341.402H373.05V345.32H355.763V341.402ZM355.763 324.751H372.071V328.669H355.763V324.751ZM355.763 311.039H373.05V314.957H355.763V311.039ZM357.624 345.32H353.461V311.039H357.624V345.32Z" fill="#CCAA35"/>
<path d="M395.086 313.487L406.839 310.549V345.32H402.677V315.544L395.086 317.797V313.487Z" fill="#CCAA35"/>
<path d="M433.996 318.164C433.326 316.972 432.412 316.034 431.253 315.348C430.094 314.663 428.78 314.319 427.311 314.319C425.842 314.319 424.527 314.663 423.368 315.348C422.209 316.034 421.295 316.972 420.626 318.164C419.957 319.356 419.622 320.735 419.622 322.302C419.622 323.869 419.957 325.258 420.626 326.465C421.295 327.673 422.209 328.629 423.368 329.329C424.527 330.032 425.842 330.383 427.311 330.383C428.78 330.383 430.094 330.032 431.253 329.329C432.412 328.629 433.326 327.673 433.996 326.465C434.664 325.258 435 323.869 435 322.302C435 320.735 434.664 319.356 433.996 318.164ZM420.014 345.32L430.739 331.167L431.033 331.411C430.38 332.228 429.62 332.766 428.755 333.028C427.89 333.289 426.902 333.419 425.792 333.419C424.389 333.419 423.075 333.142 421.851 332.586C420.626 332.032 419.549 331.248 418.618 330.236C417.688 329.225 416.96 328.041 416.439 326.685C415.916 325.331 415.656 323.869 415.656 322.302C415.656 319.952 416.169 317.895 417.198 316.132C418.226 314.369 419.622 312.998 421.385 312.018C423.148 311.039 425.123 310.548 427.311 310.548C429.53 310.548 431.514 311.039 433.261 312.018C435.008 312.998 436.396 314.369 437.424 316.132C438.453 317.895 438.966 319.952 438.966 322.302C438.966 323.707 438.77 325.012 438.378 326.22C437.987 327.429 437.465 328.49 436.811 329.404L425.254 345.32H420.014Z" fill="#CCAA35"/>
<path d="M462.207 318.164C461.537 316.972 460.623 316.034 459.464 315.348C458.305 314.663 456.991 314.319 455.522 314.319C454.053 314.319 452.738 314.663 451.579 315.348C450.42 316.034 449.506 316.972 448.837 318.164C448.168 319.356 447.833 320.735 447.833 322.302C447.833 323.869 448.168 325.258 448.837 326.465C449.506 327.673 450.42 328.629 451.579 329.329C452.738 330.032 454.053 330.383 455.522 330.383C456.991 330.383 458.305 330.032 459.464 329.329C460.623 328.629 461.537 327.673 462.207 326.465C462.875 325.258 463.211 323.869 463.211 322.302C463.211 320.735 462.875 319.356 462.207 318.164ZM448.225 345.32L458.95 331.167L459.244 331.411C458.591 332.228 457.831 332.766 456.966 333.028C456.101 333.289 455.113 333.419 454.003 333.419C452.6 333.419 451.286 333.142 450.062 332.586C448.837 332.032 447.76 331.248 446.829 330.236C445.899 329.225 445.171 328.041 444.65 326.685C444.127 325.331 443.867 323.869 443.867 322.302C443.867 319.952 444.38 317.895 445.409 316.132C446.437 314.369 447.833 312.998 449.596 312.018C451.359 311.039 453.334 310.548 455.522 310.548C457.741 310.548 459.725 311.039 461.473 312.018C463.219 312.998 464.607 314.369 465.635 316.132C466.664 317.895 467.177 319.952 467.177 322.302C467.177 323.707 466.981 325.012 466.589 326.22C466.198 327.429 465.676 328.49 465.022 329.404L453.465 345.32H448.225Z" fill="#CCAA35"/>
<path d="M490.41 318.164C489.74 316.972 488.826 316.034 487.667 315.348C486.508 314.663 485.194 314.319 483.725 314.319C482.256 314.319 480.941 314.663 479.782 315.348C478.623 316.034 477.709 316.972 477.04 318.164C476.371 319.356 476.036 320.735 476.036 322.302C476.036 323.869 476.371 325.258 477.04 326.465C477.709 327.673 478.623 328.629 479.782 329.329C480.941 330.032 482.256 330.383 483.725 330.383C485.194 330.383 486.508 330.032 487.667 329.329C488.826 328.629 489.74 327.673 490.41 326.465C491.078 325.258 491.414 323.869 491.414 322.302C491.414 320.735 491.078 319.356 490.41 318.164ZM476.428 345.32L487.153 331.167L487.447 331.411C486.794 332.228 486.034 332.766 485.169 333.028C484.304 333.289 483.316 333.419 482.206 333.419C480.803 333.419 479.489 333.142 478.265 332.586C477.04 332.032 475.963 331.248 475.032 330.236C474.102 329.225 473.374 328.041 472.853 326.685C472.33 325.331 472.07 323.869 472.07 322.302C472.07 319.952 472.583 317.895 473.612 316.132C474.64 314.369 476.036 312.998 477.799 312.018C479.562 311.039 481.537 310.548 483.725 310.548C485.944 310.548 487.928 311.039 489.676 312.018C491.422 312.998 492.81 314.369 493.838 316.132C494.867 317.895 495.38 319.952 495.38 322.302C495.38 323.707 495.184 325.012 494.792 326.22C494.401 327.429 493.879 328.49 493.225 329.404L481.668 345.32H476.428Z" fill="#CCAA35"/>
<path d="M524.961 321.768L736.82 325.436L524.961 329.105V321.768Z" fill="#CCAA35"/>
<path d="M212.805 329.105L3.71875 325.437L212.805 321.768V329.105Z" fill="#CCAA35"/>
</svg>
